# Blender 4.1.1
# www.blender.org
mtllib Stairs.mtl
o Cube
v -1.000000 -1.000000 1.000000
v -1.000000 1.000000 1.000000
v -1.000000 -1.000000 -1.000000
v -1.000000 1.000000 -1.000000
v 1.000000 -1.000000 1.000000
v 1.000000 -1.000000 -1.000000
v 1.000000 -0.756758 1.000000
v -0.756758 1.000000 1.000000
v 0.560810 -0.756758 1.000000
v 0.560810 -0.317569 1.000000
v 0.121621 -0.317569 1.000000
v 0.121621 0.121621 1.000000
v -0.317569 0.121621 1.000000
v -0.317569 0.560810 1.000000
v -0.756758 0.560810 1.000000
v -0.756758 1.000000 -1.000000
v 1.000000 -0.756758 -1.000000
v -0.756758 0.560810 -1.000000
v -0.317569 0.560810 -1.000000
v -0.317569 0.121621 -1.000000
v 0.121621 0.121621 -1.000000
v 0.121621 -0.317569 -1.000000
v 0.560810 -0.317569 -1.000000
v 0.560810 -0.756758 -1.000000
vn -1.0000 -0.0000 -0.0000
vn -0.0000 -0.0000 1.0000
vn -0.0000 -0.0000 -1.0000
vn -0.0000 -1.0000 -0.0000
vn 1.0000 -0.0000 -0.0000
vn -0.0000 1.0000 -0.0000
vt 0.000000 0.032658
vt 0.000000 1.032658
vt 1.000000 1.032658
vt 1.000000 0.032658
vt 1.032658 0.032658
vt 1.032658 0.154279
vt 0.813063 0.154279
vt 0.813063 0.373874
vt 0.593468 0.373874
vt 0.593468 0.593468
vt 0.373874 0.593468
vt 0.373874 0.813063
vt 0.154279 0.813063
vt 0.154279 1.032658
vt 0.032658 1.032658
vt 0.032658 0.032658
vt 0.032658 1.000000
vt 1.032658 1.000000
vt 1.032658 0.000000
vt 0.032658 0.000000
vt 1.000000 0.154279
vt 0.000000 0.154279
vt 0.000000 0.813063
vt 1.000000 0.813063
vt 0.154279 1.000000
vt 0.154279 0.000000
vt 0.373874 0.000000
vt 0.373874 1.000000
vt 0.000000 0.593468
vt 1.000000 0.593468
vt 0.593468 0.000000
vt 0.593468 1.000000
vt 0.000000 0.373874
vt 1.000000 0.373874
vt 0.813063 0.000000
vt 0.813063 1.000000
s 0
f 1/1/1 2/2/1 4/3/1 3/4/1
f 5/5/2 7/6/2 9/7/2 10/8/2 11/9/2 12/10/2 13/11/2 14/12/2 15/13/2 8/14/2 2/15/2 1/16/2
f 3/16/3 4/15/3 16/14/3 18/13/3 19/12/3 20/11/3 21/10/3 22/9/3 23/8/3 24/7/3 17/6/3 6/5/3
f 3/17/4 6/18/4 5/19/4 1/20/4
f 6/4/5 17/21/5 7/22/5 5/1/5
f 16/3/5 8/2/5 15/23/5 18/24/5
f 18/25/6 15/26/6 14/27/6 19/28/6
f 19/24/5 14/23/5 13/29/5 20/30/5
f 20/28/6 13/27/6 12/31/6 21/32/6
f 21/30/5 12/29/5 11/33/5 22/34/5
f 22/32/6 11/31/6 10/35/6 23/36/6
f 23/34/5 10/33/5 9/22/5 24/21/5
f 24/36/6 9/35/6 7/19/6 17/18/6
f 16/25/6 4/17/6 2/20/6 8/26/6
